<svg xmlns="http://www.w3.org/2000/svg" viewBox="0 0 300 262" role="img" aria-label="HubCharge step 1: Arrive. Pick your spot, NACS or CCS." class="hcst2-root" font-family="'Plus Jakarta Sans','Segoe UI',system-ui,-apple-system,sans-serif"><title>HubCharge step 1: Arrive. Pick your spot, NACS or CCS.</title><style>@keyframes hcst2k0{to{stroke-dashoffset:-17.7px}}.hcst2c1{animation:hcst2k0 0.9s linear infinite both;}@keyframes hcst2k2{0%{transform:translateX(0px)}100%{transform:translateX(29px)}}.hcst2c3{animation:hcst2k2 1.4s ease-in-out infinite both;}@keyframes hcst2k4{0%,100%{opacity:1}50%{opacity:.5}}.hcst2c5{animation:hcst2k4 3.2s ease-in-out infinite both;}@keyframes hcst2k6{0%{opacity:0;animation-timing-function:cubic-bezier(.65,0,.35,1)}4%{opacity:0;animation-timing-function:cubic-bezier(.65,0,.35,1)}48%{opacity:0;animation-timing-function:cubic-bezier(.65,0,.35,1)}53.6%{opacity:1;animation-timing-function:cubic-bezier(.65,0,.35,1)}61.6%{opacity:0.3;animation-timing-function:cubic-bezier(.65,0,.35,1)}68%{opacity:1;animation-timing-function:cubic-bezier(.65,0,.35,1)}77.6%{opacity:0;animation-timing-function:cubic-bezier(.65,0,.35,1)}93%{opacity:0;animation-timing-function:cubic-bezier(.4,0,.2,1)}98%{opacity:0;animation-timing-function:cubic-bezier(.65,0,.35,1)}100%{opacity:0;animation-timing-function:cubic-bezier(.65,0,.35,1)}}.hcst2c7{animation:hcst2k6 5.5s linear infinite both;}@keyframes hcst2k8{0%{opacity:0;animation-timing-function:cubic-bezier(.65,0,.35,1)}4%{opacity:0;animation-timing-function:cubic-bezier(.65,0,.35,1)}49.6%{opacity:0;animation-timing-function:cubic-bezier(.65,0,.35,1)}55.2%{opacity:1;animation-timing-function:cubic-bezier(.65,0,.35,1)}63.2%{opacity:0.3;animation-timing-function:cubic-bezier(.65,0,.35,1)}69.6%{opacity:1;animation-timing-function:cubic-bezier(.65,0,.35,1)}79.2%{opacity:0;animation-timing-function:cubic-bezier(.65,0,.35,1)}93%{opacity:0;animation-timing-function:cubic-bezier(.4,0,.2,1)}98%{opacity:0;animation-timing-function:cubic-bezier(.65,0,.35,1)}100%{opacity:0;animation-timing-function:cubic-bezier(.65,0,.35,1)}}.hcst2c9{animation:hcst2k8 5.5s linear infinite both;}@keyframes hcst2ka{0%{transform:rotate(0deg);animation-timing-function:cubic-bezier(.65,0,.35,1)}4%{transform:rotate(0deg);animation-timing-function:cubic-bezier(.65,0,.35,1)}8.8%{transform:rotate(0deg);animation-timing-function:cubic-bezier(.4,0,.2,1)}47.2%{transform:rotate(-990deg);animation-timing-function:cubic-bezier(.65,0,.35,1)}93%{transform:rotate(-990deg);animation-timing-function:cubic-bezier(.4,0,.2,1)}98%{transform:rotate(0deg);animation-timing-function:cubic-bezier(.65,0,.35,1)}100%{transform:rotate(0deg);animation-timing-function:cubic-bezier(.65,0,.35,1)}}.hcst2cb{animation:hcst2ka 5.5s linear infinite both;transform-box:fill-box;transform-origin:50% 50%;}@keyframes hcst2kc{0%{opacity:0;animation-timing-function:cubic-bezier(.65,0,.35,1)}4%{opacity:0;animation-timing-function:cubic-bezier(.65,0,.35,1)}8%{opacity:1;animation-timing-function:cubic-bezier(.65,0,.35,1)}44%{opacity:1;animation-timing-function:cubic-bezier(.65,0,.35,1)}50.4%{opacity:0;animation-timing-function:cubic-bezier(.65,0,.35,1)}93%{opacity:0;animation-timing-function:cubic-bezier(.4,0,.2,1)}98%{opacity:0;animation-timing-function:cubic-bezier(.65,0,.35,1)}100%{opacity:0;animation-timing-function:cubic-bezier(.65,0,.35,1)}}.hcst2cd{animation:hcst2kc 5.5s linear infinite both;}@keyframes hcst2ke{0%{opacity:0;animation-timing-function:cubic-bezier(.65,0,.35,1)}4%{opacity:0;animation-timing-function:cubic-bezier(.65,0,.35,1)}39.2%{opacity:0;animation-timing-function:cubic-bezier(.65,0,.35,1)}44%{opacity:1;animation-timing-function:cubic-bezier(.65,0,.35,1)}60%{opacity:1;animation-timing-function:cubic-bezier(.65,0,.35,1)}68%{opacity:0;animation-timing-function:cubic-bezier(.65,0,.35,1)}93%{opacity:0;animation-timing-function:cubic-bezier(.4,0,.2,1)}98%{opacity:0;animation-timing-function:cubic-bezier(.65,0,.35,1)}100%{opacity:0;animation-timing-function:cubic-bezier(.65,0,.35,1)}}.hcst2cf{animation:hcst2ke 5.5s linear infinite both;}@keyframes hcst2kg{0%{opacity:0;animation-timing-function:cubic-bezier(.65,0,.35,1)}4%{opacity:0;animation-timing-function:cubic-bezier(.65,0,.35,1)}7.2%{opacity:1;animation-timing-function:cubic-bezier(.65,0,.35,1)}28%{opacity:0.45;animation-timing-function:cubic-bezier(.65,0,.35,1)}44%{opacity:1;animation-timing-function:cubic-bezier(.65,0,.35,1)}56.8%{opacity:0;animation-timing-function:cubic-bezier(.65,0,.35,1)}93%{opacity:0;animation-timing-function:cubic-bezier(.4,0,.2,1)}98%{opacity:0;animation-timing-function:cubic-bezier(.65,0,.35,1)}100%{opacity:0;animation-timing-function:cubic-bezier(.65,0,.35,1)}}.hcst2ch{animation:hcst2kg 5.5s linear infinite both;}@keyframes hcst2ki{0%{opacity:0;animation-timing-function:cubic-bezier(.65,0,.35,1)}4%{opacity:0;animation-timing-function:cubic-bezier(.65,0,.35,1)}10.4%{opacity:1;animation-timing-function:cubic-bezier(.65,0,.35,1)}37.6%{opacity:1;animation-timing-function:cubic-bezier(.65,0,.35,1)}47.2%{opacity:0;animation-timing-function:cubic-bezier(.65,0,.35,1)}93%{opacity:0;animation-timing-function:cubic-bezier(.4,0,.2,1)}98%{opacity:0;animation-timing-function:cubic-bezier(.65,0,.35,1)}100%{opacity:0;animation-timing-function:cubic-bezier(.65,0,.35,1)}}.hcst2cj{animation:hcst2ki 5.5s linear infinite both;}@keyframes hcst2kk{0%{transform:translate(215px,0px);animation-timing-function:cubic-bezier(.65,0,.35,1)}4%{transform:translate(215px,0px);animation-timing-function:cubic-bezier(.65,0,.35,1)}8.8%{transform:translate(215px,0px);animation-timing-function:cubic-bezier(.4,0,.2,1)}47.2%{transform:translate(0px,0px);animation-timing-function:cubic-bezier(.65,0,.35,1)}93%{transform:translate(0px,0px);animation-timing-function:cubic-bezier(.4,0,.2,1)}98%{transform:translate(215px,0px);animation-timing-function:cubic-bezier(.65,0,.35,1)}100%{transform:translate(215px,0px);animation-timing-function:cubic-bezier(.65,0,.35,1)}}.hcst2cl{animation:hcst2kk 5.5s linear infinite both;}@keyframes hcst2km{0%{opacity:0;animation-timing-function:cubic-bezier(.65,0,.35,1)}0%{opacity:0;animation-timing-function:cubic-bezier(.65,0,.35,1)}3%{opacity:1;animation-timing-function:cubic-bezier(.65,0,.35,1)}90.5%{opacity:1;animation-timing-function:cubic-bezier(.65,0,.35,1)}93%{opacity:0;animation-timing-function:cubic-bezier(.65,0,.35,1)}100%{opacity:0;animation-timing-function:cubic-bezier(.65,0,.35,1)}100%{opacity:0;animation-timing-function:cubic-bezier(.65,0,.35,1)}}.hcst2cn{animation:hcst2km 5.5s linear infinite both;}@media (prefers-reduced-motion:reduce){.hcst2-root *{animation:none!important}}</style><defs><clipPath id="hcst2-clip"><rect width="300" height="262"/></clipPath><linearGradient id="hcst2-plate" x1=".06" y1="0" x2=".78" y2="1"><stop offset="0" stop-color="#14263F"/><stop offset=".34" stop-color="#0E1D33"/><stop offset=".72" stop-color="#0A192F"/><stop offset="1" stop-color="#071426"/></linearGradient><radialGradient id="hcst2-key" cx=".32" cy=".22" r=".7"><stop offset="0" stop-color="#7E9BC4" stop-opacity=".16"/><stop offset=".5" stop-color="#7E9BC4" stop-opacity=".05"/><stop offset="1" stop-color="#7E9BC4" stop-opacity="0"/></radialGradient><radialGradient id="hcst2-horizon" cx=".5" cy="1" r=".75"><stop offset="0" stop-color="#2A4066" stop-opacity=".34"/><stop offset=".45" stop-color="#2A4066" stop-opacity=".12"/><stop offset="1" stop-color="#2A4066" stop-opacity="0"/></radialGradient><linearGradient id="hcst2-floor" x1="0" y1="0" x2="0" y2="1"><stop offset="0" stop-color="#1B2535"/><stop offset="1" stop-color="#050D18"/></linearGradient><linearGradient id="hcst2-soffit" x1="0" y1="0" x2="0" y2="1"><stop offset="0" stop-color="#070F1C"/><stop offset="1" stop-color="#0E1A2D"/></linearGradient><radialGradient id="hcst2-cone" cx=".5" cy="0" r="1" fx=".5" fy="0"><stop offset="0" stop-color="#FFE3BD" stop-opacity=".1"/><stop offset=".55" stop-color="#FFE3BD" stop-opacity=".035"/><stop offset="1" stop-color="#FFE3BD" stop-opacity="0"/></radialGradient><radialGradient id="hcst2-warm"><stop offset="0" stop-color="#FFE3BD" stop-opacity=".16"/><stop offset="1" stop-color="#FFE3BD" stop-opacity="0"/></radialGradient><radialGradient id="hcst2-poolO"><stop offset="0" stop-color="#FF7A00" stop-opacity=".32"/><stop offset=".55" stop-color="#FF7A00" stop-opacity=".1"/><stop offset="1" stop-color="#FF7A00" stop-opacity="0"/></radialGradient><radialGradient id="hcst2-poolG"><stop offset="0" stop-color="#86EFAC" stop-opacity=".22"/><stop offset="1" stop-color="#86EFAC" stop-opacity="0"/></radialGradient><radialGradient id="hcst2-vig" cx=".45" cy=".42" r=".8"><stop offset=".55" stop-color="#050D18" stop-opacity="0"/><stop offset=".85" stop-color="#050D18" stop-opacity=".18"/><stop offset="1" stop-color="#050D18" stop-opacity=".45"/></radialGradient><radialGradient id="hcst2-fixture"><stop offset="0" stop-color="#FFE9CC" stop-opacity=".45"/><stop offset="1" stop-color="#FFE9CC" stop-opacity="0"/></radialGradient><linearGradient id="hcst2-chFace" x1="0" y1="0" x2="1" y2=".3"><stop offset="0" stop-color="#EEEBE5"/><stop offset=".6" stop-color="#DEDAD2"/><stop offset="1" stop-color="#C8C3B9"/></linearGradient><linearGradient id="hcst2-chTop" x1="0" y1="0" x2="0" y2="1"><stop offset="0" stop-color="#fff" stop-opacity=".42"/><stop offset="1" stop-color="#fff" stop-opacity="0"/></linearGradient><linearGradient id="hcst2-chSide" x1="0" y1="0" x2="0" y2="1"><stop offset="0" stop-color="#A6A197"/><stop offset="1" stop-color="#88837A"/></linearGradient><linearGradient id="hcst2-chPlinth" x1="0" y1="0" x2="0" y2="1"><stop offset="0" stop-color="#4A5361"/><stop offset="1" stop-color="#29303B"/></linearGradient><linearGradient id="hcst2-chScreen" x1="0" y1="0" x2="0" y2="1"><stop offset="0" stop-color="#16294A"/><stop offset="1" stop-color="#091526"/></linearGradient><linearGradient id="hcst2-nacs" x1="0" y1="0" x2="1" y2="0"><stop offset="0" stop-color="#F2F4F7"/><stop offset=".55" stop-color="#C7CDD6"/><stop offset="1" stop-color="#8C95A2"/></linearGradient><radialGradient id="hcst2-chShadow"><stop offset="0" stop-color="#050D18" stop-opacity=".6"/><stop offset="1" stop-color="#050D18" stop-opacity="0"/></radialGradient><radialGradient id="hcst2-ledG"><stop offset="0" stop-color="#4ADE80" stop-opacity=".7"/><stop offset="1" stop-color="#4ADE80" stop-opacity="0"/></radialGradient><radialGradient id="hcst2-ledO"><stop offset="0" stop-color="#FF7A00" stop-opacity=".75"/><stop offset="1" stop-color="#FF7A00" stop-opacity="0"/></radialGradient><linearGradient id="hcst2-carGlass" x1="0" y1="0" x2="0" y2="1"><stop offset="0" stop-color="#A9C0DD" stop-opacity=".55"/><stop offset=".5" stop-color="#2A3B55" stop-opacity=".7"/><stop offset="1" stop-color="#0D1728" stop-opacity=".92"/></linearGradient><linearGradient id="hcst2-carRim" x1=".2" y1="0" x2=".8" y2="1"><stop offset="0" stop-color="#3C485A"/><stop offset="1" stop-color="#18202C"/></linearGradient><radialGradient id="hcst2-carShadow"><stop offset="0" stop-color="#050D18" stop-opacity=".75"/><stop offset=".6" stop-color="#050D18" stop-opacity=".35"/><stop offset="1" stop-color="#050D18" stop-opacity="0"/></radialGradient><linearGradient id="hcst2-carBeam" x1="0" y1="0" x2="1" y2="0"><stop offset="0" stop-color="#EAF3FF" stop-opacity=".38"/><stop offset="1" stop-color="#EAF3FF" stop-opacity="0"/></linearGradient><radialGradient id="hcst2-glowW"><stop offset="0" stop-color="#EAF3FF" stop-opacity=".75"/><stop offset="1" stop-color="#EAF3FF" stop-opacity="0"/></radialGradient><radialGradient id="hcst2-glowR"><stop offset="0" stop-color="#FF3B4E" stop-opacity=".7"/><stop offset="1" stop-color="#FF3B4E" stop-opacity="0"/></radialGradient><radialGradient id="hcst2-glowO"><stop offset="0" stop-color="#FF7A00" stop-opacity=".6"/><stop offset="1" stop-color="#FF7A00" stop-opacity="0"/></radialGradient><linearGradient id="hcst2-paint-blue" x1="0" y1="0" x2="0" y2="1"><stop offset=".12" stop-color="#7BA5E8"/><stop offset=".38" stop-color="#4675C4"/><stop offset=".68" stop-color="#27559C"/><stop offset="1" stop-color="#122D5A"/></linearGradient><linearGradient id="hcst2-refl-blue" x1="0" y1="0" x2="0" y2="1"><stop offset=".45" stop-color="#4675C4" stop-opacity="0"/><stop offset="1" stop-color="#4675C4" stop-opacity=".16"/></linearGradient></defs><g transform="translate(0 0)"><rect width="300" height="262" fill="url(#hcst2-plate)"/><rect width="300" height="262" fill="url(#hcst2-key)"/><ellipse cx="150" cy="222" rx="198" ry="96" fill="url(#hcst2-horizon)"/><rect x="21.43" y="30" width=".8" height="176" fill="#7E9BC4" opacity=".06"/><rect x="42.86" y="30" width=".8" height="176" fill="#7E9BC4" opacity=".06"/><rect x="64.29" y="30" width=".8" height="176" fill="#7E9BC4" opacity=".06"/><rect x="85.71" y="30" width=".8" height="176" fill="#7E9BC4" opacity=".06"/><rect x="107.14" y="30" width=".8" height="176" fill="#7E9BC4" opacity=".06"/><rect x="128.57" y="30" width=".8" height="176" fill="#7E9BC4" opacity=".06"/><rect x="150" y="30" width=".8" height="176" fill="#7E9BC4" opacity=".06"/><rect x="171.43" y="30" width=".8" height="176" fill="#7E9BC4" opacity=".06"/><rect x="192.86" y="30" width=".8" height="176" fill="#7E9BC4" opacity=".06"/><rect x="214.29" y="30" width=".8" height="176" fill="#7E9BC4" opacity=".06"/><rect x="235.71" y="30" width=".8" height="176" fill="#7E9BC4" opacity=".06"/><rect x="257.14" y="30" width=".8" height="176" fill="#7E9BC4" opacity=".06"/><rect x="278.57" y="30" width=".8" height="176" fill="#7E9BC4" opacity=".06"/><rect x="0" y="206" width="300" height="1" fill="#7E9BC4" opacity=".07"/><rect width="300" height="20" fill="url(#hcst2-soffit)"/><rect y="18.6" width="300" height="1.4" fill="#FFE6C7" opacity=".45"/><path d="M33,20H47L100,222H-20Z" fill="url(#hcst2-cone)"/><ellipse cx="40" cy="228" rx="78" ry="12" fill="url(#hcst2-warm)"/><ellipse cx="40" cy="21" rx="30" ry="9" fill="url(#hcst2-fixture)"/><rect x="32" y="18.4" width="16" height="2.4" rx="1.2" fill="#FFF6E8"/><path d="M189,20H203L256,222H136Z" fill="url(#hcst2-cone)"/><ellipse cx="196" cy="228" rx="78" ry="12" fill="url(#hcst2-warm)"/><ellipse cx="196" cy="21" rx="30" ry="9" fill="url(#hcst2-fixture)"/><rect x="188" y="18.4" width="16" height="2.4" rx="1.2" fill="#FFF6E8"/><rect y="222" width="300" height="40" fill="url(#hcst2-floor)"/><rect y="222" width="300" height="1" fill="#48607F" opacity=".4"/><path d="M92,226L84,262" stroke="#CBD5E1" stroke-opacity=".1" stroke-width="1.6" stroke-linecap="round"/><path d="M292,226L284,262" stroke="#CBD5E1" stroke-opacity=".1" stroke-width="1.6" stroke-linecap="round"/><rect x="6" y="217" width="72" height="5" fill="#1E293A"/><rect x="6" y="217" width="72" height="1.1" fill="#56657D" opacity=".6"/><rect x="6" y="222" width="72" height="2.4" fill="#0F1826"/></g><g clip-path="url(#hcst2-clip)"><g transform="translate(24 142.9) scale(0.3)"><ellipse cx="47" cy="248" rx="66" ry="5" fill="url(#hcst2-chShadow)"/><rect x="19" y="-16" width="5" height="13" fill="#B9B4AA"/><rect x="-19" y="-19.5" width="43" height="4.8" rx="1.4" fill="#E6E3DD"/><rect x="-19" y="-19.5" width="4" height="10.5" rx="1.3" fill="#E6E3DD"/><rect x="-19" y="-19.5" width="43" height="1.2" rx=".6" fill="#fff" opacity=".55"/><rect x="76" y="-16" width="5" height="13" fill="#B9B4AA"/><rect x="76" y="-19.5" width="43" height="4.8" rx="1.4" fill="#E6E3DD"/><rect x="115" y="-19.5" width="4" height="10.5" rx="1.3" fill="#E6E3DD"/><rect x="76" y="-19.5" width="43" height="1.2" rx=".6" fill="#fff" opacity=".55"/><path d="M-7,3.6L0,1V235H-7Z" fill="url(#hcst2-chSide)"/><rect x="-8" y="-3.8" width="109" height="5.4" rx="1.3" fill="#F8F6F2"/><rect x="0" y="1.6" width="100" height="233.4" fill="url(#hcst2-chFace)"/><rect x="0" y="1.6" width="100" height="70" fill="url(#hcst2-chTop)"/><rect x="0" y="1.6" width="100" height="1.2" fill="#000" opacity=".1"/><rect x="94" y="1.6" width="6" height="233.4" fill="#000" opacity=".05"/><rect x="4" y="5" width="92" height="226" rx="2" fill="none" stroke="#BFBAAF" stroke-width=".6" opacity=".75"/><text x="50" y="19.6" text-anchor="middle" font-size="11.2" font-weight="800" letter-spacing=".2"><tspan fill="#858E9C">HUB</tspan><tspan fill="#FF7A00">CHARGE</tspan></text><text x="50" y="25.3" text-anchor="middle" font-size="2.9" font-weight="600" letter-spacing=".35" fill="#8F97A3">FAST CHARGING &amp; GRID BALANCING</text><rect x="33" y="33" width="14" height="2.6" rx="1.3" fill="#B8B3A9"/><rect x="53" y="33" width="14" height="2.6" rx="1.3" fill="#B8B3A9"/><g class="hcst2c5" opacity="1"><ellipse cx="50" cy="34.3" rx="24" ry="6.5" fill="url(#hcst2-ledG)"/><rect x="33" y="33" width="14" height="2.6" rx="1.3" fill="#4ADE80"/><rect x="53" y="33" width="14" height="2.6" rx="1.3" fill="#4ADE80"/></g><g opacity="0"><ellipse cx="50" cy="34.3" rx="24" ry="6.5" fill="url(#hcst2-ledO)"/><rect x="33" y="33" width="14" height="2.6" rx="1.3" fill="#FF7A00"/><rect x="53" y="33" width="14" height="2.6" rx="1.3" fill="#FF7A00"/><g><rect x="33" y="33" width="5" height="2.6" rx="1.3" fill="#FFB068"/></g></g><rect x="31" y="44" width="38" height="66" rx="3.6" fill="#0B1018"/><rect x="33.5" y="47" width="33" height="60" rx="2" fill="url(#hcst2-chScreen)"/><rect x="36" y="50" width="28" height="1.2" rx=".6" fill="#fff" opacity=".12"/><circle cx="37.2" cy="50.6" r=".75" fill="#4ADE80"/><g opacity="1"><circle cx="50" cy="70" r="9.5" fill="#FF7A00" fill-opacity=".12" stroke="#FF7A00" stroke-width="1.4"/><path d="M51.2,63.4L45.6,71.2H49.6L48.5,76.8L54.4,68.6H50.4Z" fill="#FFB068"/><rect x="40" y="86" width="20" height="2" rx="1" fill="#fff" opacity=".55"/><rect x="43" y="91" width="14" height="1.4" rx=".7" fill="#fff" opacity=".25"/></g><g opacity="0"><rect x="41" y="59.5" width="18" height="18" rx="1.6" fill="#F4F6FA"/><rect x="42.2" y="60.7" width="5.4" height="5.4" rx=".6" fill="#091526"/><rect x="43.3" y="61.8" width="3.2" height="3.2" fill="#F4F6FA"/><rect x="44.1" y="62.6" width="1.6" height="1.6" fill="#091526"/><rect x="52.4" y="60.7" width="5.4" height="5.4" rx=".6" fill="#091526"/><rect x="53.5" y="61.8" width="3.2" height="3.2" fill="#F4F6FA"/><rect x="54.3" y="62.6" width="1.6" height="1.6" fill="#091526"/><rect x="42.2" y="70.9" width="5.4" height="5.4" rx=".6" fill="#091526"/><rect x="43.3" y="72" width="3.2" height="3.2" fill="#F4F6FA"/><rect x="44.1" y="72.8" width="1.6" height="1.6" fill="#091526"/><rect x="44.5" y="66" width="2.2" height="2.2" fill="#091526"/><rect x="48" y="62.5" width="2.2" height="2.2" fill="#091526"/><rect x="51" y="66" width="2.2" height="2.2" fill="#091526"/><rect x="53" y="69.5" width="2.2" height="2.2" fill="#091526"/><rect x="47.5" y="70.5" width="2.2" height="2.2" fill="#091526"/><rect x="50" y="73.5" width="2.2" height="2.2" fill="#091526"/><rect x="54.5" y="73" width="2.2" height="2.2" fill="#091526"/><rect x="44.5" y="74.5" width="2.2" height="2.2" fill="#091526"/><rect x="40" y="86" width="20" height="2" rx="1" fill="#FF7A00"/><rect x="43" y="91" width="14" height="1.4" rx=".7" fill="#fff" opacity=".3"/></g><g opacity="0"><circle cx="50" cy="70" r="10.5" fill="none" stroke="#1E3350" stroke-width="2.4"/><circle cx="50" cy="70" r="10.5" fill="none" stroke="#FF7A00" stroke-width="2.4" stroke-linecap="round" pathLength="100" stroke-dasharray="100" stroke-dashoffset="38" transform="rotate(-90 50 70)"/><path d="M51.2,63.4L45.6,71.2H49.6L48.5,76.8L54.4,68.6H50.4Z" fill="#FFB068" transform="translate(50 70) scale(.78) translate(-50 -70)"/><rect x="40" y="88" width="20" height="2" rx="1" fill="#1E3350"/><rect x="40" y="88" width="20" height="2" rx="1" fill="#FF7A00" style="transform:scaleX(0.62);transform-box:fill-box;transform-origin:0 50%"/></g><g opacity="0"><circle cx="50" cy="70" r="10.5" fill="#86EFAC" fill-opacity=".14" stroke="#86EFAC" stroke-width="1.8"/><path d="M45.2,70.6L48.7,74.1L55,66.8" fill="none" stroke="#86EFAC" stroke-width="2.4" stroke-linecap="round" stroke-linejoin="round"/><rect x="40" y="88" width="20" height="2" rx="1" fill="#86EFAC" opacity=".7"/></g><rect x="43.5" y="116" width="13" height="24" rx="2.6" fill="#131922"/><circle cx="50" cy="119.4" r=".95" fill="#60A5FA"/><path d="M48.2,125.5q1.8,3.2 0,6.4M50.6,124.2q2.8,4.5 0,9" fill="none" stroke="#4B5563" stroke-width=".8" stroke-linecap="round"/><rect x="7.5" y="102" width="3" height="14" rx="1.2" fill="#B3AEA4"/><text x="22" y="129.6" text-anchor="middle" font-size="3.8" font-weight="800" fill="#7B8491">CCS1</text><text x="78" y="129.6" text-anchor="middle" font-size="3.8" font-weight="800" fill="#7B8491">NACS</text><rect x="34" y="212" width="32" height=".8" rx=".4" fill="#BFBAAF"/><rect x="34" y="216" width="32" height=".8" rx=".4" fill="#BFBAAF"/><rect x="34" y="220" width="32" height=".8" rx=".4" fill="#BFBAAF"/><rect x="15" y="134" width="14" height="12" rx="3.5" fill="#2A3039"/><rect x="17" y="136" width="10" height="8" rx="2.5" fill="#0C1016"/><g class="hcst2c7" opacity="0"><circle cx="22" cy="140" r="11" fill="#FF7A00" fill-opacity=".12" stroke="#FF7A00" stroke-width="1.3"/></g><rect x="71" y="134" width="14" height="12" rx="3.5" fill="#2A3039"/><rect x="73" y="136" width="10" height="8" rx="2.5" fill="#0C1016"/><g class="hcst2c9" opacity="0"><circle cx="78" cy="140" r="11" fill="#FF7A00" fill-opacity=".12" stroke="#FF7A00" stroke-width="1.3"/></g><rect x="-7" y="235" width="108" height="12" rx="1.4" fill="url(#hcst2-chPlinth)"/><rect x="-7" y="235" width="108" height="1.2" fill="#7A8494" opacity=".55"/><g opacity="1"><g><path d="M-17,-9C-34,50 -36,208 -18,232C-6,248 -2,199 13,162.3" fill="none" stroke="#0B0F15" stroke-width="3.4" stroke-linecap="round" /><path d="M-17,-9C-34,50 -36,208 -18,232C-6,248 -2,199 13,162.3" fill="none" stroke="#6A7890" stroke-width="1.02" stroke-opacity=".8" stroke-linecap="round" /></g><g><g transform="translate(22 140) rotate(22) scale(1)"><rect x="-6" y="-2" width="12" height="8" rx="2.6" fill="#1A1F28"/><rect x="-1.5" y="-3.4" width="3" height="3" rx=".8" fill="#3D4552"/><path d="M-5,5H5L4,17Q3.6,21 0,21.5Q-3.6,21 -4,17Z" fill="#1A1F28"/><path d="M-3.4,6.6L-2.7,16.6" stroke="#3D4552" stroke-width=".9" stroke-linecap="round"/><rect x="-2.2" y="20" width="4.4" height="4.4" rx="1" fill="#0B0E13"/></g></g></g><g opacity="1"><g><path d="M117,-9C134,50 136,208 118,232C106,248 102,199 87,162.3" fill="none" stroke="#0B0F15" stroke-width="3.4" stroke-linecap="round" /><path d="M117,-9C134,50 136,208 118,232C106,248 102,199 87,162.3" fill="none" stroke="#6A7890" stroke-width="1.02" stroke-opacity=".8" stroke-linecap="round" /></g><g><g transform="translate(78 140) rotate(-22) scale(1)"><rect x="-4.6" y="-2" width="9.2" height="7.5" rx="2.4" fill="#C7CDD6"/><path d="M-4,4.5H4L3.3,17Q3,20.6 0,21Q-3,20.6 -3.3,17Z" fill="url(#hcst2-nacs)"/><circle cx="0" cy="8.4" r="1.2" fill="#6B7480"/><rect x="-1.9" y="20" width="3.8" height="4.4" rx="1" fill="#0B0E13"/></g></g></g></g><g class="hcst2cn"><g class="hcst2ch" opacity="0"><path d="M97,223.5H287L283,236H93Z" fill="#FF7A00" fill-opacity=".06" stroke="#FF7A00" stroke-opacity=".7" stroke-width="1.1" stroke-dasharray="5 4"/></g><g class="hcst2cl"><g transform="translate(94.94 163.12) scale(0.46 0.46)"><g transform="translate(0 128) scale(1 -.28) translate(0 -128)"><path d="M22,112C14,110 11,100 12,90C13,78 18,66 34,60C56,54 80,50 100,44C130,28 170,16 212,16C246,16 270,26 300,48C320,55 346,60 368,64C384,67 393,73 394,84C395,94 392,104 386,110L384,112H345A34,34 0 1 0 279,112H121A34,34 0 1 0 55,112Z" fill="url(#hcst2-refl-blue)"/></g><ellipse cx="202" cy="128" rx="190" ry="5.5" fill="url(#hcst2-carShadow)"/><ellipse cx="88" cy="127.6" rx="30" ry="3" fill="#050D18" opacity=".7"/><ellipse cx="312" cy="127.6" rx="30" ry="3" fill="#050D18" opacity=".7"/><circle cx="88" cy="101" r="31" fill="#060A10"/><circle cx="312" cy="101" r="31" fill="#060A10"/><g opacity="0"><path d="M390,77L520,62V104Z" fill="url(#hcst2-carBeam)"/></g><path d="M22,112C14,110 11,100 12,90C13,78 18,66 34,60C56,54 80,50 100,44C130,28 170,16 212,16C246,16 270,26 300,48C320,55 346,60 368,64C384,67 393,73 394,84C395,94 392,104 386,110L384,112H345A34,34 0 1 0 279,112H121A34,34 0 1 0 55,112Z" fill="url(#hcst2-paint-blue)"/><path d="M121,105.5H279V112H121Z" fill="#0C1422" opacity=".85"/><path d="M20,104H55L55.5,112H22C19,111 17,108 16,104Z" fill="#0C1422" opacity=".55"/><path d="M358,105L388,104L386,110L360,111Z" fill="#0C1422"/><path d="M26,70C110,60 250,58 391,80" fill="none" stroke="#fff" stroke-opacity=".4" stroke-width="1.3" stroke-linecap="round"/><path d="M64,94C150,91 260,91 366,95" fill="none" stroke="#fff" stroke-opacity=".09" stroke-width="1.2" stroke-linecap="round"/><path d="M104,57C128,42 170,23 212,23C242,23 266,33 292,52C230,54 160,56 104,57Z" fill="#0B1322"/><g opacity=".85"><circle cx="238" cy="37.6" r="6.6" fill="#223049"/><path d="M224,54Q226,44.6 238,44.6Q250,44.6 252,54Z" fill="#223049"/></g><path d="M104,57C128,42 170,23 212,23C242,23 266,33 292,52C230,54 160,56 104,57Z" fill="url(#hcst2-carGlass)"/><path d="M154,28L176,24L146,56H122Z" fill="#fff" opacity=".07"/><path d="M192,24.4L200,24V54.4L192,54.8Z" fill="#0C1422"/><path d="M104,57C128,42 170,23 212,23C242,23 266,33 292,52C230,54 160,56 104,57Z" fill="none" stroke="#D4DCE6" stroke-width="1.3" stroke-opacity=".9" stroke-linejoin="round"/><path d="M200,57L202,105" stroke="#0C1422" stroke-opacity=".45" stroke-width=".9"/><path d="M130,58C128,80 128,92 132,103" fill="none" stroke="#0C1422" stroke-opacity=".3" stroke-width=".9"/><rect x="154" y="63" width="15" height="2.6" rx="1.3" fill="#D4DCE6" opacity=".7"/><rect x="244" y="62" width="15" height="2.6" rx="1.3" fill="#D4DCE6" opacity=".7"/><path d="M282,53C285,47.5 296,47 301,51L299.5,57H285Z" fill="#27559C"/><path d="M284,51.5C288,48.4 295,48.2 300,50.6" fill="none" stroke="#fff" stroke-opacity=".35" stroke-width=".9"/><path d="M377,68.6C386,71 391.6,75 393.6,81L386.6,82.4C384.2,78 380.8,75.2 375,73.2Z" fill="#EAF3FF"/><g opacity="1"><ellipse cx="389" cy="77" rx="17" ry="8" fill="url(#hcst2-glowW)"/></g><path d="M12.6,86C13.2,75 18.5,66.5 34,60.4L35.6,64.6C23.4,69.6 18.6,77 17.8,87Z" fill="#E8475A"/><g class="hcst2cf" opacity="0"><ellipse cx="20" cy="74" rx="16" ry="19" fill="url(#hcst2-glowR)"/><path d="M12.6,86C13.2,75 18.5,66.5 34,60.4L35.6,64.6C23.4,69.6 18.6,77 17.8,87Z" fill="#FF6B78"/></g><rect x="13.5" y="89.5" width="5" height="3" rx="1.2" fill="#DDE3EA" opacity=".75"/><g class="hcst2cd" opacity="0"><ellipse cx="16" cy="91" rx="12" ry="8" fill="url(#hcst2-glowW)"/><rect x="13.5" y="89.5" width="5" height="3" rx="1.2" fill="#fff"/></g><rect x="36" y="70.5" width="14" height="11" rx="3.2" fill="#4675C4" stroke="#0C1422" stroke-opacity=".5" stroke-width=".7"/><g opacity="0"><circle cx="43" cy="76" r="15" fill="url(#hcst2-glowO)"/><rect x="36" y="70.5" width="14" height="11" rx="3.2" fill="#0B1220"/><circle cx="43" cy="76" r="3.4" fill="none" stroke="#FF7A00" stroke-width="1.3"/></g><circle cx="88" cy="100" r="27" fill="#090D14"/><circle cx="88" cy="100" r="24.6" fill="none" stroke="#1F2835" stroke-width="2.4"/><circle cx="88" cy="100" r="19.5" fill="url(#hcst2-carRim)"/><g transform="translate(88 100)"><g class="hcst2cb"><circle r="19.5" fill="none"/><path d="M-1.6,-4.2L-4.4,-18.3Q0,-19.7 4.4,-18.3L1.6,-4.2Z" transform="rotate(0)" fill="#C5CEDA"/><path d="M-1.6,-4.2L-4.4,-18.3Q0,-19.7 4.4,-18.3L1.6,-4.2Z" transform="rotate(72)" fill="#C5CEDA"/><path d="M-1.6,-4.2L-4.4,-18.3Q0,-19.7 4.4,-18.3L1.6,-4.2Z" transform="rotate(144)" fill="#C5CEDA"/><path d="M-1.6,-4.2L-4.4,-18.3Q0,-19.7 4.4,-18.3L1.6,-4.2Z" transform="rotate(216)" fill="#C5CEDA"/><path d="M-1.6,-4.2L-4.4,-18.3Q0,-19.7 4.4,-18.3L1.6,-4.2Z" transform="rotate(288)" fill="#C5CEDA"/><circle r="18.6" fill="none" stroke="#9AA5B4" stroke-width=".8"/><circle r="4" fill="#D5DCE5"/><circle r="1.4" fill="#18202C"/></g></g><path d="M66,86A26,26 0 0 1 80,74.6" fill="none" stroke="#fff" stroke-opacity=".12" stroke-width="1.2"/><circle cx="312" cy="100" r="27" fill="#090D14"/><circle cx="312" cy="100" r="24.6" fill="none" stroke="#1F2835" stroke-width="2.4"/><circle cx="312" cy="100" r="19.5" fill="url(#hcst2-carRim)"/><g transform="translate(312 100)"><g class="hcst2cb"><circle r="19.5" fill="none"/><path d="M-1.6,-4.2L-4.4,-18.3Q0,-19.7 4.4,-18.3L1.6,-4.2Z" transform="rotate(0)" fill="#C5CEDA"/><path d="M-1.6,-4.2L-4.4,-18.3Q0,-19.7 4.4,-18.3L1.6,-4.2Z" transform="rotate(72)" fill="#C5CEDA"/><path d="M-1.6,-4.2L-4.4,-18.3Q0,-19.7 4.4,-18.3L1.6,-4.2Z" transform="rotate(144)" fill="#C5CEDA"/><path d="M-1.6,-4.2L-4.4,-18.3Q0,-19.7 4.4,-18.3L1.6,-4.2Z" transform="rotate(216)" fill="#C5CEDA"/><path d="M-1.6,-4.2L-4.4,-18.3Q0,-19.7 4.4,-18.3L1.6,-4.2Z" transform="rotate(288)" fill="#C5CEDA"/><circle r="18.6" fill="none" stroke="#9AA5B4" stroke-width=".8"/><circle r="4" fill="#D5DCE5"/><circle r="1.4" fill="#18202C"/></g></g><path d="M290,86A26,26 0 0 1 304,74.6" fill="none" stroke="#fff" stroke-opacity=".12" stroke-width="1.2"/></g><g class="hcst2cj" opacity="0"><path d="M284,186h14" stroke="#fff" stroke-opacity=".35" stroke-width="1.4" stroke-linecap="round"/><path d="M284,195h11" stroke="#fff" stroke-opacity=".35" stroke-width="1.4" stroke-linecap="round"/><path d="M284,204h8" stroke="#fff" stroke-opacity=".35" stroke-width="1.4" stroke-linecap="round"/></g></g></g><g><text x="286" y="42" text-anchor="end" font-size="9" font-weight="700" letter-spacing="1.26" fill="#fff" fill-opacity=".62">PICK YOUR SPOT</text><text x="286" y="54.6" text-anchor="end" font-size="9" font-weight="500" fill="#fff" fill-opacity=".5">NACS or CCS</text></g></g><rect width="300" height="262" fill="url(#hcst2-vig)" pointer-events="none"/></svg>